<svg xmlns="http://www.w3.org/2000/svg" viewBox="0 0 500 500">
  <!-- Definitions -->
  <defs>
    <!-- Gradient for the main circle -->
    <linearGradient id="circle-gradient" x1="0%" y1="0%" x2="100%" y2="100%">
      <stop offset="0%" stop-color="#1A2980"/>
      <stop offset="100%" stop-color="#26D0CE"/>
    </linearGradient>
    
    <!-- Shadow filter -->
    <filter id="shadow" x="-20%" y="-20%" width="140%" height="140%">
      <feDropShadow dx="0" dy="4" stdDeviation="10" flood-color="#000" flood-opacity="0.2"/>
    </filter>
    
    <!-- Building gradient -->
    <linearGradient id="building-gradient" x1="0%" y1="0%" x2="100%" y2="100%">
      <stop offset="0%" stop-color="#2C3E50"/>
      <stop offset="100%" stop-color="#4A5568"/>
    </linearGradient>
    
    <!-- Step gradient -->
    <linearGradient id="step-gradient" x1="0%" y1="0%" x2="100%" y2="100%">
      <stop offset="0%" stop-color="#FF9966"/>
      <stop offset="100%" stop-color="#FF5E62"/>
    </linearGradient>
  </defs>
  
  <!-- Background circle -->
  <circle cx="250" cy="250" r="240" fill="white" stroke="url(#circle-gradient)" stroke-width="20" filter="url(#shadow)"/>
  
  <!-- Logo Elements -->
  <g transform="translate(250, 250)">
    <!-- Stylized Building -->
    <g transform="translate(-125, -125) scale(0.9)">
      <!-- Main Building Body -->
      <rect x="50" y="80" width="150" height="170" rx="5" fill="url(#building-gradient)"/>
      
      <!-- Stylized roof -->
      <path d="M45,80 L205,80 L125,20 Z" fill="#34495E"/>
      
      <!-- Windows (simplified for modern look) -->
      <rect x="70" y="110" width="30" height="30" rx="2" fill="#26D0CE" opacity="0.8"/>
      <rect x="150" y="110" width="30" height="30" rx="2" fill="#26D0CE" opacity="0.8"/>
      <rect x="70" y="160" width="30" height="30" rx="2" fill="#26D0CE" opacity="0.8"/>
      <rect x="150" y="160" width="30" height="30" rx="2" fill="#26D0CE" opacity="0.8"/>
      
      <!-- Door -->
      <rect x="110" y="200" width="30" height="50" rx="3" fill="#34495E"/>
      <circle cx="125" cy="225" r="3" fill="#FFFFFF"/>
    </g>
    
    <!-- Steps - shown as ascending blocks with circular indicators -->
    <g transform="translate(30, -40)">
      <!-- Step 1 -->
      <rect x="0" y="0" width="80" height="16" rx="8" fill="url(#step-gradient)" opacity="0.9"/>
      <circle cx="15" cy="8" r="12" fill="white" stroke="#FF5E62" stroke-width="2"/>
      <text x="15" y="12" font-family="Arial" font-size="12" font-weight="bold" text-anchor="middle" fill="#FF5E62">1</text>
      
      <!-- Step 2 -->
      <rect x="20" y="36" width="80" height="16" rx="8" fill="url(#step-gradient)" opacity="0.8"/>
      <circle cx="35" cy="44" r="12" fill="white" stroke="#FF5E62" stroke-width="2"/>
      <text x="35" y="48" font-family="Arial" font-size="12" font-weight="bold" text-anchor="middle" fill="#FF5E62">2</text>
      
      <!-- Step 3 -->
      <rect x="40" y="72" width="80" height="16" rx="8" fill="url(#step-gradient)" opacity="0.7"/>
      <circle cx="55" cy="80" r="12" fill="white" stroke="#FF5E62" stroke-width="2"/>
      <text x="55" y="84" font-family="Arial" font-size="12" font-weight="bold" text-anchor="middle" fill="#FF5E62">3</text>
      
      <!-- Step 4 -->
      <rect x="60" y="108" width="80" height="16" rx="8" fill="url(#step-gradient)" opacity="0.6"/>
      <circle cx="75" cy="116" r="12" fill="white" stroke="#FF5E62" stroke-width="2"/>
      <text x="75" y="120" font-family="Arial" font-size="12" font-weight="bold" text-anchor="middle" fill="#FF5E62">4</text>
    </g>
  </g>
  
  <!-- Circular path with text "STEP BY STEP IMMO" -->
  <path id="textPath" 
        d="M 250, 250 m -150, 0 a 150,150 0 1,1 300,0 a 150,150 0 1,1 -300,0"
        fill="none"/>
  
  <text font-family="Arial, sans-serif" font-size="24" font-weight="700" letter-spacing="2">
    <textPath href="#textPath" startOffset="50%" text-anchor="middle">
      <tspan fill="#1A2980">STEP BY STEP IMMO</tspan>
    </textPath>
  </text>
</svg>