<svg width="1000" height="1000" xmlns="http://www.w3.org/2000/svg">
  <defs>
    <!-- Définition des motifs -->
    <pattern id="dots" width="20" height="20" patternUnits="userSpaceOnUse">
      <circle cx="10" cy="10" r="1.5" fill="#4CAF50" fill-opacity="0.3" />
    </pattern>
    
    <pattern id="grid" width="40" height="40" patternUnits="userSpaceOnUse">
      <path d="M 40 0 L 0 0 0 40" fill="none" stroke="#4CAF50" stroke-width="0.5" stroke-opacity="0.2" />
    </pattern>
    
    <pattern id="waves" width="100" height="20" patternUnits="userSpaceOnUse">
      <path d="M 0 10 Q 25 0, 50 10 T 100 10" fill="none" stroke="#4CAF50" stroke-width="1" stroke-opacity="0.2" />
    </pattern>
    
    <pattern id="triangles" width="50" height="50" patternUnits="userSpaceOnUse">
      <path d="M 0 50 L 25 0 L 50 50 Z" fill="none" stroke="#4CAF50" stroke-width="0.5" stroke-opacity="0.15" />
    </pattern>
  </defs>
  
  <!-- Arrière-plan avec motifs -->
  <rect width="100%" height="100%" fill="white" />
  <rect width="100%" height="100%" fill="url(#dots)" />
  <rect width="100%" height="100%" fill="url(#grid)" />
  
  <!-- Formes géométriques décoratives -->
  <circle cx="150" cy="150" r="100" fill="#4CAF50" fill-opacity="0.05" />
  <circle cx="850" cy="850" r="120" fill="#4CAF50" fill-opacity="0.05" />
  <rect x="700" y="100" width="200" height="200" fill="#4CAF50" fill-opacity="0.03" />
  <rect x="100" y="700" width="150" height="150" fill="#4CAF50" fill-opacity="0.03" />
  
  <!-- Lignes ondulées -->
  <path d="M 0 300 Q 250 200, 500 300 T 1000 300" fill="none" stroke="#4CAF50" stroke-width="1" stroke-opacity="0.1" />
  <path d="M 0 600 Q 250 500, 500 600 T 1000 600" fill="none" stroke="#4CAF50" stroke-width="1" stroke-opacity="0.1" />
  
  <!-- Triangles décoratifs -->
  <path d="M 300 0 L 350 100 L 250 100 Z" fill="#4CAF50" fill-opacity="0.05" />
  <path d="M 700 900 L 750 800 L 650 800 Z" fill="#4CAF50" fill-opacity="0.05" />
  
  <!-- Motif de vagues sur certaines zones -->
  <rect x="0" y="400" width="1000" height="100" fill="url(#waves)" />
  
  <!-- Motif de triangles sur certaines zones -->
  <rect x="400" y="0" width="200" height="1000" fill="url(#triangles)" />
</svg>
